<svg fill="none" height="467" viewBox="0 0 466 467" width="466" xmlns="http://www.w3.org/2000/svg"><path d="m197.1 312.585-9.475 84.96h109.906l-14.316-84.96z" fill="#b3200e"/><path d="m12.4785 103.264v194.578c-.0005 7.697 3.0057 15.09 8.3777 20.603 5.372 5.512 12.6848 8.708 20.3794 8.906 71.0704 1.832 319.6354 6.277 387.2884 5.279 5.597-.084 10.945-2.326 14.929-6.257s6.296-9.249 6.454-14.844c1.306-45.203 3.424-153.901-4.416-204.366-.798-5.149-3.37-9.858-7.271-13.3123-3.902-3.4544-8.887-5.4369-14.096-5.605-59.547-1.9042-323.044-7.9538-390.666-6.4348-5.6072.1244-10.9427 2.4394-14.864 6.4493-3.9212 4.0098-6.1165 9.3958-6.1155 15.0038z" fill="#fa541c"/><path d="m24.6885 102.318v184.862c-.0001 4.491 1.7663 8.802 4.9178 12.001 3.1515 3.2 7.4351 5.031 11.9256 5.099l377.2621 4.66c2.201.034 4.387-.371 6.431-1.188 2.044-.818 3.905-2.033 5.476-3.575s2.821-3.38 3.676-5.409c.856-2.028 1.301-4.206 1.309-6.407l.631-183.212c.014-3.185-1.222-6.249-3.443-8.532-2.221-2.2839-5.248-3.6054-8.433-3.6809l-386.2372-7.8042c-1.759-.0432-3.5088.2658-5.1465.9091-1.6378.6432-3.1303 1.6075-4.3896 2.8363-1.2594 1.2287-2.2603 2.6969-2.9437 4.3183-.6833 1.6214-1.0354 3.3634-1.0355 5.1224z" fill="#fee9d1"/><path d="m235.688 325.139c-6.356-.114-6.355-9.561 0-9.67 6.353.111 6.353 9.557 0 9.67z" fill="#fee9d1"/><path d="m321.204 414.93h-160.852c-4.367 0-7.651-3.11-6.808-6.452 1.63-5.025 1.12-12.401 8.594-12.521l155.069-4.834c3.35-.105 6.317 1.673 7.047 4.224l3.72 12.993c.968 3.383-2.329 6.59-6.77 6.59z" fill="#770508"/><g fill="#22b8cf"><path d="m361.088 23.5365c2.405.1138 4.835.3337 7.213.6534.582.0679 1.168-.0956 1.631-.4554.463-.3597.766-.8869.845-1.468.078-.5811-.076-1.1697-.427-1.6389-.352-.4693-.874-.7817-1.453-.87-2.508-.3368-5.064-.5677-7.597-.6909-2.915-.1232-3.135 4.3169-.212 4.4698z"/><path d="m298.444 43.8167c-.41-.428-.974-.6755-1.567-.6881-.592-.0125-1.166.2108-1.594.621-1.828 1.753-3.603 3.6057-5.275 5.5053-.391.4455-.59 1.0283-.552 1.6203s.31 1.1446.755 1.5363c.446.3917 1.028.5904 1.62.5524.592-.0381 1.145-.3097 1.537-.7552 1.587-1.806 3.275-3.5652 5.009-5.2308.212-.2031.382-.446.5-.7148.119-.2689.183-.5583.189-.8519s-.046-.5855-.152-.8591c-.107-.2736-.267-.5235-.47-.7354z"/><path d="m271.025 94.3534c-.587-.079-1.182.0782-1.654.4372s-.782.8905-.863 1.4779c-.341 2.5094-.577 5.0635-.701 7.5925-.021.296.018.594.114.875.096.282.248.541.445.763.198.222.437.403.706.531.268.129.559.203.856.217.297.015.594-.03.873-.131.28-.102.536-.258.754-.46.219-.202.395-.445.518-.715.123-.271.191-.563.2-.861.119-2.401.342-4.8342.666-7.2095.08-.5875-.077-1.1827-.436-1.6547-.358-.472-.89-.7823-1.478-.8624z"/><path d="m285.59 58.4625c-.245-.162-.519-.274-.808-.3296-.288-.0557-.585-.0539-.872.0052-.288.0591-.561.1744-.804.3392-.244.1649-.452.376-.613.6215-1.404 2.1163-2.717 4.3153-3.924 6.533-.149.2585-.246.5442-.283.8404s-.015.5969.066.8843.218.5557.404.7892c.186.2334.417.4272.68.57.262.1428.55.2316.847.2612.297.0297.597-.0005.882-.0886s.55-.2325.779-.4246c.228-.192.416-.4279.552-.6937 1.148-2.1085 2.403-4.1984 3.731-6.2102.326-.4952.442-1.0996.323-1.6804-.12-.5808-.465-1.0905-.96-1.4169z"/><path d="m342.147 24.7773c2.372-.4242 4.788-.7517 7.174-.9732.297-.0203.588-.0999.854-.2342.266-.1342.503-.3204.696-.5474.194-.2271.34-.4906.43-.7749s.122-.5837.094-.8806c-.027-.2969-.114-.5854-.254-.8484-.141-.2629-.333-.4951-.564-.6829-.232-.1878-.499-.3274-.785-.4105-.286-.0832-.587-.1082-.883-.0737-2.519.2324-5.061.5786-7.556 1.0231-2.868.5209-2.088 4.908.794 4.4027z"/><path d="m276.294 75.5861c-.555-.2089-1.171-.1889-1.711.0555-.54.2445-.961.6935-1.17 1.2483-.892 2.369-1.694 4.8066-2.382 7.2442-.153.5685-.077 1.1747.214 1.687.29.5123.771.8893 1.338 1.0493s1.174.0899 1.689-.1949.898-.7615 1.064-1.3265c.653-2.3175 1.414-4.6319 2.261-6.8824.209-.5549.189-1.17-.055-1.7102-.245-.5401-.694-.9611-1.248-1.1703z"/><path d="m270.087 113.81c-.293.026-.577.109-.838.246-.26.136-.491.322-.679.548-.189.225-.331.486-.418.766-.088.28-.119.575-.093.868.227 2.514.567 5.056 1.008 7.553.107.581.439 1.095.924 1.432.485.336 1.084.467 1.665.364s1.098-.431 1.438-.914c.34-.482.476-1.08.377-1.662-.419-2.373-.742-4.788-.959-7.174-.026-.292-.109-.576-.245-.837-.136-.26-.322-.491-.548-.679-.225-.188-.485-.33-.765-.418s-.575-.119-.867-.093z"/><path d="m306.746 39.7857c2.293-1.2851 4.385-3.0319 6.706-4.306.257-.1482.482-.3461.662-.5821s.311-.5055.386-.7926c.074-.2872.091-.5863.049-.8801-.042-.2937-.142-.5761-.295-.8307-.152-.2547-.353-.4764-.592-.6525-.239-.176-.511-.3027-.799-.3727-.288-.0701-.588-.0821-.881-.0353s-.573.1515-.826.3079c-2.172 1.2991-4.313 2.7089-6.366 4.189-2.046 1.3864-.346 4.7349 1.956 3.9551z"/><path d="m323.717 30.2432c2.299-.9358 4.64-1.8513 7.018-2.6092 2.75-.8999 1.437-5.0952-1.335-4.267-2.426.7798-4.845 1.6859-7.189 2.6746-2.567 1.0777-1.139 5.0079 1.506 4.2016z"/><path d="m276.303 134.405c-.935-2.807-5.146-1.465-4.256 1.374.78 2.416 1.691 4.889 2.669 7.219 1.154 2.701 5.216.874 4.108-1.779-.928-2.22-1.781-4.518-2.521-6.814z"/><path d="m386.035 26.157c.812-2.9632-2.984-3.1972-4.942-3.8818-.285-.0871-.585-.1164-.881-.0862s-.584.1193-.845.262c-.262.1428-.492.3364-.678.5694-.185.2329-.322.5007-.403.7874-.081.2868-.103.5868-.067.8824.037.2956.133.5809.281.8391.149.2582.347.4841.585.6644.237.1804.507.3116.796.3859 2.005.4227 5.098 2.4033 6.154-.4226z"/><path d="m348.732 192.753c-2.357-.232-4.731-.566-7.056-.995-.583-.107-1.185.021-1.673.357-.488.337-.823.853-.931 1.436-.107.583.021 1.185.357 1.673.337.488.853.823 1.436.931 2.72.38 5.552 1.143 8.294.965 2.275-.6 1.971-4.209-.427-4.367z"/><path d="m440.985 75.0995c1.301 2.6295 5.287.6769 4.024-1.9525-.529-1.0918-1.092-2.1913-1.669-3.2674-1.391-2.5686-5.314-.4678-3.94 2.1179.551 1.02 1.083 2.0649 1.585 3.102z"/><path d="m451.147 101.681c-.59.058-1.133.347-1.51.804-.377.458-.557 1.047-.5 1.637.231 2.358.362 4.75.391 7.113.021.584.27 1.136.693 1.539s.986.624 1.57.617c.585-.007 1.143-.243 1.555-.656.413-.414.647-.972.654-1.556-.032-2.496-.17-5.008-.411-7.486-.028-.293-.113-.577-.251-.836-.138-.26-.326-.489-.553-.676s-.488-.327-.769-.413-.576-.115-.869-.087z"/><path d="m451.374 120.858c-.589-.073-1.182.09-1.65.453-.467.364-.772.899-.846 1.487-.294 2.339-.694 4.71-1.187 7.027-.075.292-.09.596-.045.894s.15.583.309.839c.158.257.367.478.613.652.246.173.525.295.819.359.295.063.599.066.895.008.296-.057.577-.174.826-.343.25-.169.462-.386.626-.639.163-.253.273-.537.324-.834.52-2.439.936-4.928 1.248-7.4.075-.588-.086-1.182-.448-1.652-.362-.469-.896-.775-1.484-.851z"/><path d="m436.278 157.724c-1.268 1.994-2.637 3.964-4.07 5.85-1.341 1.642.468 4.17 2.428 3.492 2.14-1.144 3.887-4.94 5.418-6.944 1.557-2.473-2.197-4.862-3.776-2.398z"/><path d="m410.026 183.946c-2.002 1.266-4.08 2.46-6.177 3.548-.521.277-.911.748-1.086 1.311-.176.563-.121 1.172.15 1.695.272.523.739.918 1.301 1.098.561.181 1.171.132 1.696-.135 2.207-1.146 4.397-2.403 6.505-3.743 2.463-1.566.088-5.326-2.389-3.774z"/><path d="m424.598 172.29c-1.676 1.677-3.44 3.297-5.246 4.819-.443.386-.718.93-.763 1.516-.045.585.142 1.165.52 1.615.379.449.919.731 1.504.785.585.053 1.168-.125 1.623-.497 1.901-1.603 3.758-3.311 5.524-5.075 2.054-2.074-1.084-5.221-3.162-3.163z"/><path d="m447.374 139.61c-.277-.1-.57-.144-.863-.131-.293.014-.581.085-.847.21-.265.124-.504.3-.702.517-.197.217-.351.471-.45.747-.803 2.224-1.716 4.443-2.7 6.598-.247.54-.27 1.155-.063 1.711.206.556.625 1.007 1.164 1.254s1.155.27 1.711.064c.556-.207 1.007-.626 1.254-1.165 1.04-2.266 1.996-4.602 2.84-6.942.1-.276.144-.569.13-.862-.013-.294-.084-.582-.209-.848s-.301-.504-.518-.702-.471-.351-.747-.451z"/><path d="m375.06 196.425c-2.353.293-4.744.488-7.105.583-2.918.123-2.748 4.571.178 4.467 2.607-.13 5.268-.272 7.851-.691 2.56-.752 1.754-4.702-.924-4.359z"/><path d="m393.239 192.109c-2.216.789-4.498 1.494-6.812 2.108-.573.153-1.062.527-1.36 1.039-.298.513-.38 1.123-.228 1.697.81 2.721 3.837 1.264 5.716.742 1.404-.423 2.807-.886 4.183-1.372 2.748-.992 1.263-5.181-1.499-4.214z"/><path d="m449.568 84.4517c-.908-2.7932-5.147-1.4036-4.253 1.3849.736 2.2551 1.38 4.5539 1.926 6.8621.683 2.8369 5.009 1.8278 4.351-1.0293-.568-2.4205-1.252-4.8456-2.024-7.2177z"/><path d="m330.41 188.86c-1.092-.362-2.196-.753-3.276-1.164-2.74-1.02-4.312 3.14-1.579 4.185 1.559.424 3.169 1.559 4.803 1.247 2.021-.533 2.105-3.669.052-4.268z"/><path clip-rule="evenodd" d="m417.696 87.9621 12.586 1.7748c.955-.4022 2.15 6.7114 2.96 11.5331.39 2.321.691 4.11.833 4.276.684.747-4.71 3.668-8.351 5.64-1.711.927-3.035 1.644-3.158 1.826-.231 6.019-1.443 11.96-3.587 17.589.03.198.96 1.365 2.17 2.882 2.587 3.245 6.453 8.092 5.511 8.492l-8.531 12.65c-.045 1.011-5.918-.736-9.888-1.917-1.871-.557-3.32-.988-3.536-.945-4.419 4.096-9.476 7.445-14.972 9.913-.12.161-.286 1.641-.503 3.566-.465 4.121-1.16 10.282-2.108 9.901l-14.972 2.911c-.748.683-3.663-4.701-5.633-8.341-.929-1.716-1.648-3.044-1.831-3.167-6.02-.232-11.961-1.443-17.591-3.587-.198.03-1.362.959-2.877 2.167-3.245 2.587-8.097 6.457-8.497 5.516l-12.648-8.533c-1.012-.048.732-5.907 1.91-9.864.555-1.862.983-3.304.941-3.52l5.805-5.757 17.051 3.307-2.202-21.306 16.219-12.072 27.74.926-10.96-23.732 12.417-13.4623 16.246-3.1192c3.888 4.2934 7.079 9.1703 9.456 14.4526zm-28.724-8.0541c6.766 4.8116 11.738 11.7384 14.131 19.6881 7.797 23.1959-11.592 49.5629-36.118 48.5109-1.669.739-2.361-1.394-.733-1.628 35.077.956 50.164-45.403 21.497-65.2454zm-25.339 42.229c2.732.783 5.655.551 8.229-.654 1.615-.761 3.036-1.88 4.153-3.272 1.118-1.393 1.903-3.022 2.296-4.763l3.63.129c-1.997 13.19-20.559 17.223-27.813 5.788l2.871-2.142c1.545 2.386 3.902 4.131 6.634 4.914z" fill-rule="evenodd"/><path clip-rule="evenodd" d="m333.692 116.295 2.098 20.3c.014.116-.001.234-.041.345-.041.11-.107.209-.192.289-.086.08-.19.139-.303.172-.112.033-.231.039-.347.017l-16.063-3.119-5.805 5.756.011-.039c-4.097-4.418-7.445-9.475-9.913-14.972-.161-.119-1.642-.286-3.567-.502-4.122-.465-10.283-1.159-9.9-2.107l-2.912-14.972c-.683-.748 4.702-3.664 8.343-5.634 1.715-.929 3.043-1.648 3.166-1.8315.231-6.019 1.442-11.96 3.587-17.5889-.03-.198-.959-1.3626-2.167-2.8774-2.588-3.2449-6.457-8.0968-5.516-8.4966l8.531-12.6497c.046-1.0112 5.918.7359 9.888 1.917 1.872.5568 3.321.9878 3.537.9448 4.418-4.0964 9.475-7.4446 14.972-9.9127.119-.1614.286-1.6416.503-3.5666.464-4.1216 1.158-10.282 2.106-9.9004l14.972-2.9117c.748-.6826 3.663 4.7018 5.634 8.3417.929 1.7158 1.648 3.044 1.832 3.1664 6.019.232 11.959 1.4435 17.589 3.5871.198-.0298 1.363-.9589 2.878-2.1672 3.245-2.5877 8.097-6.4562 8.496-5.5153l12.649 8.5324c1.012.0446-.736 5.9196-1.917 9.8896-.557 1.8704-.987 3.318-.944 3.5337.081.0876.159.1773.237.2671.072.0829.145.166.219.2476l-16.246 3.1192-12.415 13.4622 10.661 23.0822c.031.068.045.143.039.218s-.031.147-.072.209c-.042.063-.099.114-.166.148-.066.034-.141.051-.216.048l-7.885-.263c1.425-7.0066-2.988-14.8226-9.886-17.1102-13.362-5.3009-26.349 11.2182-17.944 22.9382zm-7.637 10.771c-29.17-32.7936 12.679-80.8723 49.159-56.4462.249.168.492.3426.735.5173l.131.0941-1.223 1.3256c-34.596-24.2748-75.544 21.7-47.472 53.3122.785.855-.561 2.059-1.33 1.197z" fill-rule="evenodd"/><path d="m344.107 108.544 5.805-4.322 15.512.519c2.183-8.4271-6.51-16.5967-14.826-13.842-7.392 2.1004-10.791 11.25-6.491 17.645z"/></g><path d="m35.7759 69.7615c.9872 57.8135 86.9841 57.8045 87.9601 0-.984-57.8136-86.9807-57.8042-87.9601 0z" fill="#ffa48d"/><path d="m37.2388 69.7636c.9544 55.8904 84.0912 55.8824 85.0372 0-.946-55.8906-84.0906-55.8828-85.0372 0z" fill="#b72136"/><path d="m42.8438 70.6855c.8078 47.3055 71.1732 47.2975 71.9742 0-.808-47.3036-71.1726-47.2958-71.9742 0z" fill="#ffa48d"/><path d="m81.0581 77.6901c-1.8809-.2277-6.0824.7439-6.2056-2.238l-1.491-28.6963c-.0132-.2766.0347-.5528.1405-.8088.1058-.2561.2667-.4856.4714-.6722.2046-.1867.448-.3258.7126-.4076.2647-.0818.5441-.1042.8184-.0655l7.0181.4881c.285.0087.5654.0737.8251.1915s.4934.2859.6876.4946c.1942.2088.3451.454.4439.7214.0988.2675.1436.5519.1317.8368l-1.4504 28.1706c-.0231.5395-.2557 1.0487-.6482 1.4194-.3926.3707-.9142.5738-1.4541.566z" fill="#b72136"/><path d="m74.7729 84.6982c1.8294-1.962 6.8434-1.8326 8.6073.0857 1.9479 1.7343 1.9869 6.6314-.0343 8.3921-1.8372 1.9744-6.7062 1.9885-8.5558-.0514-2.0649-1.8372-2.0571-6.647-.0172-8.4264z" fill="#b72136"/><path d="m240.306 50.602-113.537 190.766c-2.495 4.188.766 9.312 5.948 9.358l225.06 1.851c5.201.043 8.557-5.061 6.107-9.291l-111.521-192.6185c-2.564-4.4292-9.437-4.4666-12.057-.0655z" fill="#b72136"/><path d="m236.431 170.297v-.001c-.025-.791-.049-1.583-.086-2.362.035-.754.059-1.521.084-2.287v-.002c.191-6.049.383-12.128 5.639-12.572 5.251.463 5.451 6.615 5.648 12.694.022.697.045 1.392.075 2.078-.03.684-.053 1.379-.075 2.074-.197 6.048-.398 12.207-5.65 12.727-5.261-.348-5.447-6.333-5.635-12.349z" fill="#ffa48d"/><path d="m209.807 156.915c-.406 4.344-.393 12.368-.374 16.834l-10.211.103c.604-1.002 1.65-2.607 2.856-4.458 2.829-4.341 6.541-10.037 7.498-12.479z" fill="#ffa48d"/><path d="m277.951 173.057c-.017-4.342-.029-12.143.356-16.365h-.22c-.903 2.373-4.418 7.922-7.094 12.146-1.134 1.791-2.118 3.344-2.688 4.315z" fill="#ffa48d"/><path d="m214.051 214.299c2.745 0 6.148-.117 6.064-3.449.054-3.15-3.091-3.053-5.686-2.974l-.213.006-.165.005z" fill="#ffa48d"/><path d="m241.847 210.299c.089 3.287-3.244 3.415-5.954 3.415v-6.354c.107-.003.215-.006.324-.009l.003-.001h.003c2.567-.08 5.682-.179 5.624 2.949z" fill="#ffa48d"/><path d="m256.589 214.441c.053 4.378 1.169 7.726 5.614 7.691 7.422.779 7.622-16.749.031-15.704-1.863.046-3.267.741-4.211 2.085-.944 1.345-1.422 3.321-1.434 5.928z" fill="#ffa48d"/><path d="m288.287 209.125c.093 3.191-3.091 3.361-5.728 3.347v-6.231l.246-.008c2.508-.081 5.548-.18 5.482 2.892z" fill="#ffa48d"/><path clip-rule="evenodd" d="m137.77 235.256 103.111-173.2524c2.378-3.9972 8.621-3.9644 10.95.0578l101.287 174.9336c2.224 3.842-.824 8.477-5.548 8.438l-204.398-1.682c-4.707-.039-7.665-4.693-5.402-8.495zm104.298-45.29c12.128-.647 14.039-10.045 14.312-22.188-.209-11.626-2.556-21.608-14.312-22.054-12.282.462-14.144 9.958-14.43 22.279.219 11.761 2.546 21.717 14.43 21.963zm-23.95-9.18 5.039-.066-.003-7.11-5.039.052v-27.283l-8.202-.01-18.646 28.313v6.453l18.159-.237v9.029l8.692-.145zm72.809-.948-4.761.062v8.745l-8.215.137v-8.776l-17.155.223v-6.271l17.623-27.517 7.751.009v26.524l4.762-.048zm-100.796 48.421 13.413-.43v-4.172l-8.456.257v-6.166l7.869-.219v-4.14l-7.869.206v-5.25l8.456-.204v-4.139l-13.413.299zm23.92-9.871v9.103l-4.878.156v-23.773c.716.003 1.584-.029 2.534-.064h.002c3.86-.141 9.082-.332 11.059 1.515 3.73 2.863 2.611 9.853-2.014 11.642 3.431 5.216 5.667 8.581 6.707 10.095l-5.356.172-5.459-8.919zm21.842 8.413v-9.032l2.542-.07 5.36 8.841 5.26-.168c-1.014-1.501-3.207-4.836-6.578-10.007 4.548-1.729 5.615-8.758 1.978-11.54-1.942-1.831-7.071-1.643-10.864-1.503h-.001c-.934.034-1.786.066-2.49.063v23.572zm36.769-12.796c.023 7.139-3.276 12.03-10.461 12.264-7.261.226-10.575-4.523-10.55-11.725-.028-7.239 3.328-12.051 10.582-12.219 7.23-.153 10.444 4.529 10.429 11.68zm9.897 11.291v-8.849l2.445-.069 5.157 8.675 5.061-.156c-.978-1.476-3.088-4.751-6.33-9.826 4.398-1.717 5.387-8.594 1.903-11.316-1.867-1.797-6.808-1.614-10.458-1.479-.895.034-1.713.064-2.389.061v23.115z" fill="#ffa48d" fill-rule="evenodd"/><path d="m105.941 427.51s-1.129 6.394-1.684 12.727c-.049.587.021 1.178.206 1.738.186.559.482 1.075.872 1.516.39.442.865.8 1.397 1.053.532.254 1.11.396 1.698.421 8.433.35 26.471 1.033 32.943.745.226-.011.446-.076.641-.189.196-.114.362-.272.484-.462s.197-.407.218-.632c.022-.225-.011-.452-.095-.662 1.196-1.53-30.778-14.643-31.419-15.405z" fill="#063963"/><path d="m105.016 423.753.908 7.651s5.218 2.43 8.783-.312l-2.161-8.526z" fill="#fdbab9"/><path d="m71.6681 430.845s-1.7981 3.228-3.5402 11.809c-.0755.365-.0735.742.0059 1.106s.2344.708.4549 1.008c.2205.301.5017.552.8253.737s.6824.299 1.0533.337c2.7838.274 7.0711.624 10.5053.602 5.6815-.387.7891-11.569-2.5983-15.236z" fill="#063963"/><path d="m70.0879 421.002 2.121 11.57s2.0977 1.56 6.2477.43l-1.0137-12.45z" fill="#fdbab9"/><path d="m105.698 279.907c-1.692 2.183.343 102.635 7.472 145.224-1.606.655-4.746 1.604-8.511 1.73-6.8135-4.378-18.9969-65.563-21.695-111.522-2.0836-54.335 0-1.852 0-1.852l1.2227-33.585z" fill="#063963"/><path d="m64.3581 282.901c-8.5418 51.553 1.8528 127.417 5.3587 142.266.7143 2.795 5.6223 2.116 8.5512 1.492.4269-.125.8038-.38 1.0775-.731s.4303-.778.4478-1.223c.4678-12.009-.3759-85.702 7.5842-114.827.4025-1.475 1.3043-2.765 2.5515-3.649l15.449-10.983 1.184-17.759z" fill="#063963"/><path d="m137.421 173.404c2.297 11.576 5.2 26.778 2.99 36.013 4.997.208 9.977.729 14.909 1.56-1.349-10.917-8.613-29.047-8.613-29.047-4.383-6.318-4.904-2.202-9.286-8.526z" fill="#fdbab9"/><path d="m155.172 154.905c-.868-.022-1.73.151-2.522.506-.793.356-1.495.885-2.055 1.548l-11.073 13.121c-3.556-1.224-.346-7.818-6.493-8.595.722 3.099.395 18.424 7.241 23.238l6.407-2.205c5.875-8.399 9.523-17.656 11.55-27.538z" fill="#fdbab9"/><path d="m69.7757 182.682c-23.1816 1.697-28.0256 14.943-44.0487 6.844l2.8368 24.808c5.9405 6.561 14.9096 11.029 26.2119 12.704z" fill="#116e95"/><path d="m140.411 209.413c-1.299 9.236-2.67 11.358-3.733 11.413-7.812-15.42-6.261-40.906-42.0279-37.605 10.0239 25.577 4.9517 54.408 37.7789 68.452 21.078 7.392 27.884-14.379 22.892-40.694-1.973-.733-4.702-1.513-14.91-1.566z" fill="#116e95"/><path d="m50.8052 190.604c.7377-.194 5.7813-5.404 6.5393-5.549 12.4314-2.369 43.4595-10.726 64.2265 4.594.052.443.084.796.105 1.092 2.308 4.128 4.786 8.612 7.864 12.411-6.843 12.046-24.78 53.72-22.025 81.532.089.645-.081 1.299-.473 1.819s-.974.864-1.619.957c-4.767.425-35.6206 4.853-41.5766-2.808.5037-4.182-1.2305-33.306-9.2483-58.484-.103.211-.1981.42-.2979.624z" fill="#116e95"/><path d="m53.0729 171.361c-16.6719 17.171-11.7997 8.445-11.9323 23.082-.0499 5.458-4.7848 26.291-4.7848 26.291-50.9982-22.027-8.4389-52.09 6.6641-60.493 4.2351 2.8 7.6934 6.625 10.053 11.12z" fill="#116e95"/><path d="m85.6149 160.245c-3.9723 7.92-5.6301 15.984-6.1276 23.492.8531.312 12.2552 8.227 19.8862.572-1.6313-5.254-1.3615-13.164-.9467-21.277z" fill="#fdbab9"/><path d="m106.298 139.431c.219.352 5.917 27.222 5.917 27.222l-15.4115 2.928-9.1844-24.657s15.0239-11.41 18.6789-5.493z" fill="#fdbab9"/><path d="m93.5036 147.107c-.2037.278-.3411.599-.4016.938-.0606.339-.0427.687.0523 1.018l3.7617 13.172c.6332 1.441 2.7464 4.507 5.984 2.062 2.963-2.218 7.842-7.057 9.612-2.619.525 2.524 1.481 7.642 1.693 12.298.023.564-.167 1.115-.533 1.545-.365.43-.879.706-1.439.774-1.404-.053-14.6043 2.183-15.9081-1.12-1.3194-3.415-5.0546-12.973-6.5237-15.508-2.1834-3.52-6.3943-1.615-8.3375-3.243-5.4944-6.126 2.9632-7.246.2713-10.917-5.0577-5.337 2.9476-11.87 8.3032-8.953 2.3176.879 2.3488-1.287 4.0846-1.267 4.3169-.124.3649-5.964 7.2022-7.573 6.748-1.661 10.491 4.994 10.608 9.799s-7.31 6.184-11.591 5.599c-3.1453-.431-5.703 2.436-6.8384 3.995z" fill="#063963"/><path d="m92.1044 164.664s-1.4348-8.506-4.8612-9.124c-3.4263-.617-6.9588 2.018-3.8116 6.88 3.913 6.056 8.6728 2.244 8.6728 2.244z" fill="#fdbab9"/><path d="m86.4525 134.059c1.7468-.054 5.8687.738 5.1965 2.934-.8499 2.353-5.2526.156-7.5982 3.949-2.0665 3.342-.3743 6.973-1.0075 10.574-.3119 1.753-1.4333 4.355-2.9991 5.379-.7002.458-6.2289 1.333-6.5315.352l-1.5362-4.991c-1.3833-4.487 3.9286-11.962 6.6672-14.982 2.1164-2.33 4.9844-3.099 7.8088-3.215z" fill="#fdbab9"/><path d="m81.2125 152.064-5.2885 4.402c-10.1373 4.314-17.5109 9.397-22.8509 14.896-2.3595-4.496-5.8177-8.321-10.0531-11.121 15.705-7.673 38.8678-15.189 38.1925-8.177z" fill="#fdbab9"/></svg>